# xmcd CD database file
#
# Track frame offsets:
#	150
#	19745
#	40877
#	56642
#	72252
#	92107
#	107562
#	122290
#	135612
#	156305
#	175450
#	192455
#	209087
#
# Disc length: 2959 seconds
#
# Revision: 3
# Processed by: cddbd v1.5PL3 Copyright (c) Steve Scherf et al.
# Submitted via: CDex 1.40Beta9
#
DISCID=bc0b8d0d
DTITLE=Fundo de Quintal - Chega pra sambar
DYEAR=1999
DGENRE=Samba
TTITLE0=Chega pra sambar
TTITLE1=Recado de fe
TTITLE2=Pout - pourri - Clareou - De saia rodada
TTITLE3=Nosso grito
TTITLE4=Só você
TTITLE5=Deixa estar
TTITLE6=Só no balanço
TTITLE7=Mulher depois que casa
TTITLE8=Diz porque
TTITLE9=Além dos sonhos da ilusão
TTITLE10=Bem feito
TTITLE11=Algemas
TTITLE12=Chorei, confesso
EXTD=YEAR: 1999 ID3G: 114
EXTT0=
EXTT1=
EXTT2=
EXTT3=
EXTT4=
EXTT5=
EXTT6=
EXTT7=
EXTT8=
EXTT9=
EXTT10=
EXTT11=
EXTT12=
PLAYORDER=
